<svg width="155" height="71" xmlns="http://www.w3.org/2000/svg" xmlns:xlink="http://www.w3.org/1999/xlink" xml:space="preserve" overflow="hidden"><defs><linearGradient x1="0.604107" y1="36.1915" x2="71.9217" y2="36.1915" gradientUnits="userSpaceOnUse" spreadMethod="pad" id="fill0"><stop offset="0" stop-color="#21E8AF"/><stop offset="1" stop-color="#01A0FB"/></linearGradient><linearGradient x1="27.3686" y1="36.4872" x2="35.1533" y2="36.4872" gradientUnits="userSpaceOnUse" spreadMethod="pad" id="fill1"><stop offset="0" stop-color="#21E8AF"/><stop offset="1" stop-color="#01A0FB"/></linearGradient><linearGradient x1="42.5607" y1="8.07779" x2="54.5155" y2="8.07779" gradientUnits="userSpaceOnUse" spreadMethod="pad" id="fill2"><stop offset="0" stop-color="#21E8AF"/><stop offset="1" stop-color="#01A0FB"/></linearGradient><linearGradient x1="54.2062" y1="6.73187" x2="62.9833" y2="6.73187" gradientUnits="userSpaceOnUse" spreadMethod="pad" id="fill3"><stop offset="0" stop-color="#21E8AF"/><stop offset="1" stop-color="#01A0FB"/></linearGradient></defs><g transform="translate(-549 -38)"><path d="M71.4903 40.9768 71.3389 41.2352 71.288 41.3252 65.4015 51.5195 64.3955 53.2631 61.7241 57.8903 61.4029 58.4477 60.4802 60.0451 59.7206 61.3587 55.2752 69.0636C54.6991 70.0609 53.6319 70.6765 52.4797 70.6765L20.0479 70.6765C18.8958 70.6765 17.8286 70.0609 17.2525 69.0636L14.2073 63.7871 10.7865 57.8632 1.03744 40.9768C0.461363 39.9776 0.461363 38.7473 1.03744 37.7481L17.2525 9.66317C17.8286 8.66401 18.8958 8.04885 20.0496 8.04885L42.7425 8.04885C44.2057 8.04885 45.6739 8.01992 47.1387 8.04885 48.816 8.08281 49.4974 8.02843 50.4048 7.14481 50.6428 6.91198 50.8977 6.62309 51.1883 6.26282 51.6165 5.73263 52.0345 5.19394 52.4407 4.64676 53.1493 3.69173 53.8239 2.71122 54.4612 1.70691 54.4782 1.80037 54.4901 1.89213 54.4952 1.9856 54.5716 3.06638 53.9887 4.11656 53.4229 5.06479 52.8009 6.11328 52.1637 7.18044 51.3106 8.04885L52.4797 8.04885C52.8264 8.04885 53.1646 8.10492 53.484 8.21195 54.0244 8.38698 54.5088 8.70306 54.8877 9.12792 55.0338 9.28934 55.163 9.46946 55.2752 9.66317L55.4366 9.94362 56.0211 10.9564 60.1692 18.1395 60.8489 19.3171 71.4903 37.7481C72.0663 38.7473 72.0663 39.9776 71.4903 40.9768Z" fill="url(#fill0)" transform="matrix(1.00612 0 0 1 549 38)"/><path d="M43.8845 63.5271C43.0604 65.7838 43.045 68.3703 43.4393 70.6765L21.6266 70.6765C21.6283 70.6624 21.6283 70.647 21.63 70.6323 21.6912 69.7588 20.8908 69.0991 20.1992 68.5639 18.5066 67.2558 16.9908 65.726 15.6874 64.0335 14.2906 62.222 13.1367 60.2236 12.2684 58.1096 11.5989 56.4816 11.0975 54.784 10.7848 53.0507 13.1622 55.9243 15.9797 58.4359 19.1065 60.4717 23.5723 63.3775 29.0459 65.3318 34.2238 64.0675 32.2475 61.8295 30.4105 59.4708 28.7265 57.005 31.4539 58.5055 34.6317 59.1734 37.7312 58.8964 38.4314 58.8335 39.2029 58.6806 39.6175 58.113 39.8928 57.7358 39.9522 57.2413 39.954 56.7723 39.9642 54.0992 38.309 51.6573 35.9503 50.4779 37.6055 51.0846 40.0135 51.7065 41.7128 50.9266 42.4741 50.5764 44.0663 47.7997 44.5235 47.7896 46.3962 47.7454 46.3247 50.9486 46.4539 52.5137 46.77 56.3389 45.1845 59.9721 43.8845 63.5271ZM59.6306 43.3951C62.0369 43.4919 64.4108 44.2311 66.4466 45.5176 65.3743 39.1331 59.4539 33.9162 52.9981 33.6137 52.9097 33.6069 52.8179 33.6018 52.7261 33.6001 52.8264 33.6001 52.947 33.5712 53.0813 33.5202 54.2181 33.1106 56.463 31.204 57.8038 31.0273 56.6839 30.3968 54.9047 30.0994 53.066 30.198 53.5317 27.2939 58.2388 22.291 60.849 19.3172 61.1464 18.9773 61.4165 18.668 61.6494 18.3877 61.9722 17.9985 62.2288 17.6705 62.3869 17.4224 65.7108 12.2292 66.0065 5.58993 62.8049 0.321987 61.8873 4.10301 59.792 7.57644 56.9167 10.19 56.6261 10.4568 56.3288 10.7118 56.0212 10.9564 55.4451 11.422 54.8418 11.852 54.2165 12.2462 54.524 11.2266 54.7484 10.1832 54.8877 9.12792 54.9166 8.90702 54.9438 8.68102 54.9642 8.45838 55.1766 6.28326 55.0322 4.07242 54.524 1.94655 54.5139 1.96015 54.5037 1.97205 54.4952 1.98564 53.8171 2.87269 53.1357 3.76484 52.4407 4.6468 51.7762 5.49137 51.0999 6.32745 50.4048 7.14481 50.1482 7.44904 49.8883 7.74978 49.6248 8.04885 49.5518 8.13211 49.4788 8.2137 49.4057 8.29695 48.7089 9.08036 47.9901 9.84167 47.2458 10.5673 45.2796 12.4943 43.13 14.192 40.6898 15.4783 38.0796 16.8548 35.2009 17.7181 32.7352 19.3393 29.1275 21.7166 26.7297 25.4909 24.439 29.1546 22.2401 32.6773 20.036 36.1967 17.8354 39.7177 18.9315 39.6633 20.0292 39.6055 21.1253 39.5495 17.6519 41.6907 14.4792 44.3246 11.7365 47.3494 11.0686 49.8271 13.288 52.2384 15.6942 53.1306 18.1039 54.0176 20.765 53.9599 23.2138 54.7263 25.0015 50.2247 30.1624 47.3358 34.9341 48.1702 35.1346 47.1421 34.9528 46.041 34.426 45.1318 36.6725 45.0332 38.9174 44.933 41.1605 44.8361 40.1375 43.6448 39.2929 42.3041 38.6608 40.8681 41.2454 40.6541 43.8624 40.875 46.3757 41.5139 45.4394 40.5198 44.5047 39.524 43.5667 38.5281 45.2117 38.6471 46.8532 38.7661 48.4982 38.8867 52.2435 40.7594 54.5733 45.5804 53.8104 49.6979 53.428 51.7711 52.9131 53.8188 52.2742 55.8257 50.743 60.6246 48.1397 66.3412 49.7251 70.6765L52.4798 70.6765C53.6319 70.6765 54.6991 70.0609 55.2752 69.0636L59.7206 61.3605 60.4802 60.0452C60.1302 59.1445 59.843 58.2065 59.5388 57.3296 60.3052 57.3381 61.0495 57.542 61.7241 57.8904L64.3955 53.2631 65.4015 51.5196C64.4159 48.2705 62.4294 45.3289 59.6306 43.3951Z" fill="#FFFFFF" transform="matrix(1.00612 0 0 1 549 38)"/><path d="M35.1533 34.4701C33.1617 37.3046 30.8948 39.043 27.3669 38.3514 29.0221 35.0751 31.8498 34.5347 35.1533 34.4701Z" fill="url(#fill1)" transform="matrix(1.00612 0 0 1 549 38)"/><path d="M52.5035 6.82196C51.4261 8.22227 49.482 10.1357 48.0546 11.1774 46.3366 12.4315 44.1394 13.6992 42.5607 14.35 46.2499 11.6073 48.7599 9.00226 51.7218 5.55939 52.0803 5.14305 54.0873 2.31705 54.4747 1.80895 54.7891 2.99509 53.1051 6.0403 52.5018 6.8237L52.5035 6.82196Z" fill="url(#fill2)" transform="matrix(1.00612 0 0 1 549 38)"/><path d="M62.3953 4.0962C61.9671 5.31292 61.2975 7.01909 60.6382 8.12702 59.464 10.1 58.198 11.5376 56.2454 12.7458 55.8647 12.982 55.4195 13.1893 54.9828 13.0942 54.5443 12.9973 54.0193 12.5402 54.2742 12.1715 55.2343 11.5614 56.2539 10.6845 57.0339 9.85527 58.6771 8.10492 60.0995 6.1456 61.2516 4.04012 61.8022 3.03581 62.6434 1.46563 62.7793 0.344063 63.3232 1.2617 62.64 3.40457 62.3953 4.0962Z" fill="url(#fill3)" transform="matrix(1.00612 0 0 1 549 38)"/><path d="M78.252 32.1285C78.252 31.8414 78.4845 31.6085 78.7718 31.6085L92.5284 31.6085C96.0235 31.6085 97.6585 32.0045 98.7985 33.1447 99.7161 34.0369 100.087 35.0786 100.262 37.1857 100.311 37.9539 100.361 39.0941 100.361 39.8877 100.361 41.3746 100.262 43.0858 100.112 44.0273 99.8401 46.0104 98.4522 47.5466 96.6424 47.8932 95.7006 48.092 94.9565 48.1413 93.1975 48.1413L78.7718 48.1413C78.4845 48.1413 78.252 47.9086 78.252 47.6214L78.252 32.1302 78.252 32.1285ZM91.7106 44.1989C93.0736 44.1989 93.1741 44.1989 93.7689 44.0001 94.9839 43.628 95.3048 42.7613 95.3048 39.9098 95.3048 36.4397 94.71 35.7209 91.809 35.7209L83.8034 35.7209C83.5168 35.7209 83.2837 35.9537 83.2837 36.2409L83.2837 43.6772C83.2837 43.9644 83.5168 44.1972 83.8034 44.1972L91.7106 44.1972 91.7106 44.1989Z" fill="#01A0FB" transform="matrix(1.00612 0 0 1 549 38)"/><path d="M106.663 42.8615C106.93 42.8615 107.156 43.0638 107.181 43.3288 107.252 44.0834 107.418 44.3077 107.921 44.4963 108.293 44.6458 109.705 44.7444 111.292 44.7444 117.118 44.7444 117.811 44.5711 117.811 43.2082 117.811 42.5386 117.488 42.0424 116.968 41.8691 116.604 41.7536 115.555 41.6873 113.821 41.6703L109.26 41.6703C106.211 41.6703 104.947 41.497 103.882 40.9515 102.692 40.3312 102.146 39.0176 102.146 36.7626 102.146 33.7888 102.99 32.5245 105.368 31.9535 106.708 31.6069 108.639 31.4827 112.259 31.4827 118.059 31.4827 119.398 31.6323 120.587 32.4004 121.643 33.1107 122.04 34.0334 122.093 36.1322 122.1 36.4244 121.863 36.6641 121.573 36.6641L117.683 36.6641C117.423 36.6641 117.201 36.472 117.169 36.2154 117.041 35.1839 116.322 35.0293 113.449 35.0293 111.838 35.0293 109.681 35.0786 108.888 35.1279 107.548 35.2264 107.104 35.5747 107.104 36.5162 107.104 37.2096 107.45 37.6565 108.169 37.8298 108.466 37.9046 108.565 37.9283 110.201 37.9539L114.886 37.9539C115.333 37.9539 117.563 38.0286 118.406 38.0779 121.553 38.2274 122.793 39.6141 122.793 42.9363 122.793 45.9849 121.901 47.324 119.471 47.844 118.232 48.1159 115.778 48.2654 112.185 48.2654 106.459 48.2654 105.195 48.1413 103.732 47.3971 102.716 46.9009 102.196 45.6365 102.196 43.6789 102.196 43.6092 102.196 43.5005 102.199 43.3714 102.204 43.0892 102.437 42.8615 102.719 42.8615L106.665 42.8615 106.663 42.8615Z" fill="#01A0FB" transform="matrix(1.00612 0 0 1 549 38)"/><path d="M132.49 31.6086 138.619 31.6086C138.81 31.6086 138.985 31.7122 139.076 31.8788L147.554 47.3699C147.745 47.7166 147.493 48.1397 147.097 48.1397L142.779 48.1397C142.591 48.1397 142.415 48.0377 142.324 47.8712L140.985 45.4582C140.893 45.2933 140.719 45.1897 140.529 45.1897L130.488 45.1897C130.296 45.1897 130.121 45.295 130.029 45.4632L128.738 47.8644C128.647 48.0326 128.47 48.138 128.279 48.138L123.779 48.138C123.381 48.138 123.13 47.7098 123.325 47.3631L132.035 31.872C132.126 31.7089 132.299 31.6069 132.488 31.6069L132.49 31.6086ZM138.66 40.977 135.966 36.0031C135.769 35.6377 135.246 35.6394 135.051 36.0064L132.394 40.9804C132.209 41.3271 132.461 41.7451 132.853 41.7451L138.201 41.7451C138.595 41.7451 138.847 41.3237 138.658 40.977L138.66 40.977Z" fill="#01A0FB" transform="matrix(1.00612 0 0 1 549 38)"/><path d="M148.941 31.6085 152.933 31.6085C153.22 31.6085 153.452 31.8414 153.452 32.1285L153.452 47.6197C153.452 47.9068 153.22 48.1397 152.933 48.1397L148.941 48.1397C148.654 48.1397 148.421 47.9068 148.421 47.6197L148.421 32.1285C148.421 31.8414 148.654 31.6085 148.941 31.6085Z" fill="#01A0FB" transform="matrix(1.00612 0 0 1 549 38)"/><path d="M92.8325 53.3872C92.8392 53.5555 92.8579 53.5945 92.9464 53.6285 93.0006 53.6506 93.2096 53.6642 93.442 53.6642 94.3007 53.6642 94.4025 53.6388 94.4025 53.4382 94.4025 53.3396 94.355 53.2666 94.2786 53.2411 94.225 53.2241 94.0703 53.2144 93.8144 53.2122L93.1433 53.2122C92.6945 53.2122 92.5076 53.1867 92.3516 53.1069 92.1761 53.0151 92.0964 52.8213 92.0964 52.49 92.0964 52.0516 92.2203 51.8663 92.5706 51.7814 92.7675 51.7304 93.0529 51.7117 93.5854 51.7117 94.44 51.7117 94.637 51.7337 94.8118 51.8459 94.9799 51.9598 95.0348 52.1093 95.0348 52.473L94.3121 52.473C94.3121 52.2606 94.2391 52.2317 93.7615 52.2317 93.5237 52.2317 93.2063 52.2384 93.0904 52.247 92.8935 52.2623 92.8271 52.3133 92.8271 52.4509 92.8271 52.5529 92.878 52.6191 92.9832 52.6446 93.0274 52.6548 93.0415 52.6599 93.2826 52.6633L93.9725 52.6633C94.0388 52.6633 94.367 52.6735 94.491 52.682 94.9545 52.7041 95.1367 52.908 95.1367 53.3974 95.1367 53.8461 95.006 54.0432 94.647 54.1196 94.4655 54.1604 94.1031 54.1825 93.5733 54.1825 92.73 54.1825 92.5431 54.1638 92.3295 54.055 92.1794 53.982 92.1031 53.7951 92.1031 53.5079 92.1031 53.4858 92.1031 53.4382 92.1064 53.3872L92.8325 53.3872Z" fill="#01A0FB" transform="matrix(1.00612 0 0 1 549 38)"/><path d="M98.5741 53.2496C98.5708 53.6031 98.5587 53.7237 98.5078 53.8341 98.4127 54.0415 98.2158 54.14 97.8367 54.1656 97.6873 54.1808 97.3952 54.1842 96.909 54.1842 96.209 54.1842 95.9813 54.1519 95.7837 54.0228 95.5426 53.8698 95.4729 53.6132 95.4729 52.891 95.4729 52.2487 95.5459 52.0193 95.8011 51.8731 96.0201 51.7457 96.2532 51.7117 96.9364 51.7117 97.8454 51.7117 98.0423 51.7304 98.2499 51.8323 98.4469 51.9309 98.5386 52.1467 98.5386 52.5036L98.5386 52.5835 97.83 52.5835C97.8146 52.3167 97.7603 52.2946 97.118 52.2946 96.5111 52.2946 96.4026 52.3098 96.3108 52.3897 96.2224 52.4696 96.2057 52.5681 96.2057 52.9624 96.2057 53.547 96.2599 53.5895 96.9719 53.5895 97.5225 53.5895 97.6042 53.586 97.706 53.5418 97.8112 53.4977 97.8521 53.4212 97.8521 53.2462L98.5708 53.2462 98.5741 53.2496Z" fill="#01A0FB" transform="matrix(1.00612 0 0 1 549 38)"/><path d="M98.9753 51.7303 99.7161 51.7303 99.7161 54.1655 98.9753 54.1655 98.9753 51.7303Z" fill="#01A0FB" transform="matrix(1.00612 0 0 1 549 38)"/><path d="M102.867 51.7304 102.867 52.281 100.899 52.281 100.899 52.7007 102.753 52.7007 102.753 53.1833 100.899 53.1833 100.899 53.6132 102.892 53.6132 102.892 54.1638 100.17 54.1638 100.17 51.7287 102.867 51.7287 102.867 51.7304Z" fill="#01A0FB" transform="matrix(1.00612 0 0 1 549 38)"/><path d="M103.257 51.7303 104.437 51.7303 105.912 53.5809 105.893 51.7303 106.594 51.7303 106.594 54.1655 105.404 54.1655 103.951 52.3336 103.969 54.1655 103.257 54.1655 103.257 51.7303Z" fill="#01A0FB" transform="matrix(1.00612 0 0 1 549 38)"/><path d="M110.089 53.2496C110.085 53.6031 110.073 53.7237 110.023 53.8341 109.927 54.0415 109.73 54.14 109.351 54.1656 109.202 54.1808 108.909 54.1842 108.424 54.1842 107.724 54.1842 107.496 54.1519 107.298 54.0228 107.057 53.8698 106.988 53.6132 106.988 52.891 106.988 52.2487 107.061 52.0193 107.316 51.8731 107.535 51.7457 107.768 51.7117 108.45 51.7117 109.36 51.7117 109.557 51.7304 109.765 51.8323 109.962 51.9309 110.053 52.1467 110.053 52.5036L110.053 52.5835 109.345 52.5835C109.329 52.3167 109.275 52.2946 108.633 52.2946 108.026 52.2946 107.917 52.3098 107.826 52.3897 107.737 52.4696 107.72 52.5681 107.72 52.9624 107.72 53.547 107.775 53.5895 108.487 53.5895 109.037 53.5895 109.118 53.586 109.221 53.5418 109.326 53.4977 109.367 53.4212 109.367 53.2462L110.085 53.2462 110.089 53.2496Z" fill="#01A0FB" transform="matrix(1.00612 0 0 1 549 38)"/><path d="M113.189 51.7304 113.189 52.281 111.221 52.281 111.221 52.7007 113.075 52.7007 113.075 53.1833 111.221 53.1833 111.221 53.6132 113.214 53.6132 113.214 54.1638 110.491 54.1638 110.491 51.7287 113.189 51.7287 113.189 51.7304Z" fill="#01A0FB" transform="matrix(1.00612 0 0 1 549 38)"/><path d="M78.3572 51.7304 80.4591 51.7304C80.9742 51.7304 81.2153 51.7882 81.3821 51.9564 81.516 52.0873 81.5723 52.2419 81.5978 52.5512 81.6045 52.6651 81.6132 52.8316 81.6132 52.9489 81.6132 53.168 81.5978 53.4195 81.5777 53.5589 81.5368 53.8512 81.3325 54.0771 81.0659 54.1282 80.9266 54.1571 80.8181 54.1638 80.5582 54.1638L78.3572 54.1638 78.3572 51.7287 78.3572 51.7304ZM80.3385 53.5844C80.5395 53.5844 80.5549 53.5844 80.6413 53.5555 80.8194 53.5011 80.867 53.3736 80.867 52.9539 80.867 52.4424 80.7786 52.337 80.3526 52.337L79.0967 52.337 79.0967 53.586 80.3372 53.586 80.3385 53.5844Z" fill="#01A0FB" transform="matrix(1.00612 0 0 1 549 38)"/><path d="M83.0626 51.7303 84.0553 51.7303 85.3876 54.1655 84.5771 54.1655 84.3353 53.7305 82.7652 53.7305 82.5328 54.1655 81.6929 54.1655 83.0613 51.7303 83.0626 51.7303ZM84.0774 53.2241 83.5523 52.2537 83.0338 53.2241 84.0774 53.2241Z" fill="#01A0FB" transform="matrix(1.00612 0 0 1 549 38)"/><path d="M86.113 52.3337 85.0292 52.3337 85.0292 51.7321 87.9382 51.7321 87.9382 52.3337 86.8538 52.3337 86.8538 54.1656 86.113 54.1656 86.113 52.3337Z" fill="#01A0FB" transform="matrix(1.00612 0 0 1 549 38)"/><path d="M88.9342 51.7303 89.9262 51.7303 91.2584 54.1655 90.448 54.1655 90.2068 53.7305 88.6368 53.7305 88.4037 54.1655 87.5644 54.1655 88.9322 51.7303 88.9342 51.7303ZM89.9503 53.2241 89.4252 52.2537 88.9067 53.2241 89.9503 53.2241Z" fill="#01A0FB" transform="matrix(1.00612 0 0 1 549 38)"/><path d="M93.8178 56.4392 96.4026 56.4392 96.4026 56.9898 94.5553 56.9898 94.5553 57.4758 96.3075 57.4758 96.3075 58.0264 94.5553 58.0264 94.5553 58.8727 93.8178 58.8727 93.8178 56.4375 93.8178 56.4392Z" fill="#01A0FB" transform="matrix(1.00612 0 0 1 549 38)"/><path d="M96.7187 56.4391 97.4596 56.4391 97.4596 58.8743 96.7187 58.8743 96.7187 56.4391Z" fill="#01A0FB" transform="matrix(1.00612 0 0 1 549 38)"/><path d="M100.96 57.9584C100.957 58.3118 100.945 58.4325 100.894 58.543 100.799 58.7503 100.602 58.8488 100.223 58.8743 100.073 58.8896 99.7811 58.893 99.2948 58.893 98.5949 58.893 98.3671 58.8607 98.1696 58.7316 97.9284 58.5786 97.8588 58.322 97.8588 57.5998 97.8588 56.9575 97.9318 56.7281 98.187 56.5819 98.406 56.4544 98.6391 56.4205 99.3223 56.4205 100.231 56.4205 100.428 56.4392 100.636 56.5411 100.833 56.6397 100.924 56.8555 100.924 57.2124L100.924 57.2922 100.216 57.2922C100.2 57.0255 100.146 57.0034 99.5038 57.0034 98.897 57.0034 98.7885 57.0186 98.6967 57.0985 98.6083 57.1784 98.5915 57.277 98.5915 57.6712 98.5915 58.2558 98.6458 58.2982 99.3578 58.2982 99.9084 58.2982 99.9901 58.2949 100.092 58.2507 100.197 58.2065 100.238 58.13 100.238 57.955L100.957 57.955 100.96 57.9584Z" fill="#01A0FB" transform="matrix(1.00612 0 0 1 549 38)"/><path d="M101.361 56.4391 102.102 56.4391 102.102 58.8743 101.361 58.8743 101.361 56.4391Z" fill="#01A0FB" transform="matrix(1.00612 0 0 1 549 38)"/><path d="M103.72 56.4391 104.712 56.4391 106.045 58.8743 105.234 58.8743 104.993 58.4392 103.422 58.4392 103.19 58.8743 102.35 58.8743 103.718 56.4391 103.72 56.4391ZM104.734 57.9329 104.209 56.9625 103.691 57.9329 104.734 57.9329Z" fill="#01A0FB" transform="matrix(1.00612 0 0 1 549 38)"/><path d="M106.201 56.4392 106.942 56.4392 106.942 58.271 108.617 58.271 108.617 58.8727 106.201 58.8727 106.201 56.4375 106.201 56.4392Z" fill="#01A0FB" transform="matrix(1.00612 0 0 1 549 38)"/><path d="M109.556 56.4391 110.296 56.4391 110.296 58.8743 109.556 58.8743 109.556 56.4391Z" fill="#01A0FB" transform="matrix(1.00612 0 0 1 549 38)"/><path d="M110.749 56.4391 111.927 56.4391 113.402 58.2897 113.384 56.4391 114.084 56.4391 114.084 58.8743 112.895 58.8743 111.442 57.0424 111.461 58.8743 110.749 58.8743 110.749 56.4391Z" fill="#01A0FB" transform="matrix(1.00612 0 0 1 549 38)"/><path d="M115.457 57.0425 114.373 57.0425 114.373 56.4409 117.283 56.4409 117.283 57.0425 116.198 57.0425 116.198 58.8744 115.457 58.8744 115.457 57.0425Z" fill="#01A0FB" transform="matrix(1.00612 0 0 1 549 38)"/><path d="M120.268 56.4392 120.268 56.9898 118.3 56.9898 118.3 57.4095 120.154 57.4095 120.154 57.8921 118.3 57.8921 118.3 58.3221 120.293 58.3221 120.293 58.8727 117.571 58.8727 117.571 56.4375 120.268 56.4375 120.268 56.4392Z" fill="#01A0FB" transform="matrix(1.00612 0 0 1 549 38)"/><path d="M120.659 56.4392 121.4 56.4392 121.4 58.271 123.075 58.271 123.075 58.8727 120.659 58.8727 120.659 56.4375 120.659 56.4392Z" fill="#01A0FB" transform="matrix(1.00612 0 0 1 549 38)"/><path d="M123.283 56.4392 124.024 56.4392 124.024 58.271 125.699 58.271 125.699 58.8727 123.283 58.8727 123.283 56.4375 123.283 56.4392Z" fill="#01A0FB" transform="matrix(1.00612 0 0 1 549 38)"/><path d="M125.906 56.4391 126.647 56.4391 126.647 58.8743 125.906 58.8743 125.906 56.4391Z" fill="#01A0FB" transform="matrix(1.00612 0 0 1 549 38)"/><path d="M129.492 57.265C129.492 57.0747 129.409 57.0016 129.186 56.9948L128.999 56.9948 128.736 56.9914 128.466 56.9948C128.23 56.9948 128.083 57.0021 128.024 57.0169 127.89 57.0492 127.83 57.1188 127.811 57.2718 127.801 57.3381 127.793 57.5607 127.793 57.717 127.793 58.045 127.825 58.1775 127.927 58.2455 128.01 58.2999 128.113 58.322 128.306 58.3254 128.359 58.3276 128.538 58.3288 128.843 58.3288 129.329 58.3322 129.419 58.3067 129.482 58.1469 129.489 58.1181 129.492 58.0841 129.492 58.0127L129.492 57.955 128.554 57.955 128.554 57.5029 130.214 57.5029 130.214 57.8393C130.214 58.2404 130.199 58.3832 130.151 58.514 130.068 58.74 129.896 58.8505 129.589 58.8828 129.512 58.8895 129.29 58.893 128.571 58.893 128.012 58.893 127.798 58.8828 127.643 58.8488 127.376 58.791 127.22 58.6771 127.135 58.4766 127.062 58.3118 127.043 58.1402 127.043 57.6881 127.043 57.1665 127.072 56.9574 127.167 56.7858 127.276 56.5954 127.448 56.4969 127.762 56.4544 127.93 56.4323 128.226 56.4221 128.69 56.4221 129.355 56.4221 129.565 56.4323 129.72 56.4697 130.095 56.5649 130.216 56.7552 130.213 57.265L129.487 57.265 129.492 57.265Z" fill="#01A0FB" transform="matrix(1.00612 0 0 1 549 38)"/><path d="M133.321 56.4392 133.321 56.9898 131.353 56.9898 131.353 57.4095 133.207 57.4095 133.207 57.8921 131.353 57.8921 131.353 58.3221 133.346 58.3221 133.346 58.8727 130.624 58.8727 130.624 56.4375 133.321 56.4375 133.321 56.4392Z" fill="#01A0FB" transform="matrix(1.00612 0 0 1 549 38)"/><path d="M133.71 56.4391 134.889 56.4391 136.364 58.2897 136.345 56.4391 137.045 56.4391 137.045 58.8743 135.856 58.8743 134.403 57.0424 134.422 58.8743 133.71 58.8743 133.71 56.4391Z" fill="#01A0FB" transform="matrix(1.00612 0 0 1 549 38)"/><path d="M140.542 57.9584C140.539 58.3118 140.528 58.4325 140.476 58.543 140.381 58.7503 140.184 58.8488 139.805 58.8743 139.656 58.8896 139.364 58.893 138.877 58.893 138.177 58.893 137.95 58.8607 137.753 58.7316 137.511 58.5786 137.441 58.322 137.441 57.5998 137.441 56.9575 137.514 56.7281 137.769 56.5819 137.988 56.4544 138.222 56.4205 138.905 56.4205 139.814 56.4205 140.011 56.4392 140.218 56.5411 140.415 56.6397 140.507 56.8555 140.507 57.2124L140.507 57.2922 139.798 57.2922C139.783 57.0255 139.729 57.0034 139.086 57.0034 138.479 57.0034 138.371 57.0186 138.279 57.0985 138.191 57.1784 138.174 57.277 138.174 57.6712 138.174 58.2558 138.228 58.2982 138.94 58.2982 139.491 58.2982 139.573 58.2949 139.674 58.2507 139.78 58.2065 139.82 58.13 139.82 57.955L140.539 57.955 140.542 57.9584Z" fill="#01A0FB" transform="matrix(1.00612 0 0 1 549 38)"/><path d="M143.642 56.4392 143.642 56.9898 141.674 56.9898 141.674 57.4095 143.529 57.4095 143.529 57.8921 141.674 57.8921 141.674 58.3221 143.668 58.3221 143.668 58.8727 140.946 58.8727 140.946 56.4375 143.642 56.4375 143.642 56.4392Z" fill="#01A0FB" transform="matrix(1.00612 0 0 1 549 38)"/><path d="M81.0251 57.5675C81.0217 57.8886 81.015 58.0195 80.9876 58.1657L81.5314 58.4511 81.3091 58.8862 80.8007 58.6347C80.5783 58.842 80.4068 58.8794 79.6031 58.8794 78.9828 58.8794 78.6204 58.8505 78.449 58.7876 78.1603 58.6822 78.0806 58.5361 78.0806 58.1164 78.0806 57.7986 78.1315 57.6558 78.2842 57.5692 78.3639 57.5216 78.449 57.5063 78.668 57.4995 78.4356 57.4111 78.3626 57.2956 78.3626 57.0033 78.3626 56.711 78.4456 56.5513 78.6479 56.4884 78.804 56.4408 78.9795 56.4306 79.6299 56.4306 80.2809 56.4306 80.5495 56.4748 80.6821 56.5954 80.7551 56.6617 80.7873 56.7739 80.7993 56.9931 80.8027 57.0594 80.8027 57.0764 80.8027 57.2089L80.1704 57.2089 80.1704 57.1291C80.1704 57.0084 80.1094 56.9472 79.9735 56.9387 79.9159 56.9353 79.6332 56.9234 79.5823 56.9234 79.1302 56.9234 79.0237 56.9523 79.0237 57.0764 79.0237 57.1681 79.0458 57.1902 79.2648 57.299L80.4068 57.8836C80.4135 57.8292 80.4169 57.7952 80.4169 57.7187 80.4169 57.649 80.4135 57.6269 80.4068 57.5692L81.0237 57.5692 81.0251 57.5675ZM79.0284 57.7391C78.9962 57.7357 78.962 57.7323 78.9453 57.7323 78.806 57.7323 78.741 57.8377 78.741 58.0603 78.741 58.1775 78.7631 58.2472 78.8073 58.2829 78.8957 58.3526 78.8991 58.3526 79.5193 58.3747L79.9393 58.3747C80.1141 58.3747 80.1838 58.3679 80.2454 58.3424L79.0304 57.7408 79.0284 57.7391Z" fill="#01A0FB" transform="matrix(1.00612 0 0 1 549 38)"/><path d="M83.6079 56.4391 84.6005 56.4391 85.9328 58.8743 85.1223 58.8743 84.8812 58.4392 83.3105 58.4392 83.078 58.8743 82.2388 58.8743 83.6065 56.4391 83.6079 56.4391ZM84.6226 57.9329 84.0975 56.9625 83.5791 57.9329 84.6226 57.9329Z" fill="#01A0FB" transform="matrix(1.00612 0 0 1 549 38)"/><path d="M86.0908 56.4392 88.19 56.4392C88.6194 56.4392 88.8103 56.4749 88.9496 56.5922 89.0923 56.706 89.1566 56.9133 89.1566 57.2413 89.1566 57.6933 89.0481 57.8734 88.7366 57.9414 89.0394 57.9924 89.1311 58.1199 89.1244 58.4886L89.1244 58.8727 88.3736 58.8727 88.3736 58.5702C88.3696 58.3067 88.2965 58.2523 87.9636 58.2592L86.8283 58.2592 86.8283 58.8727 86.0908 58.8727 86.0908 56.4375 86.0908 56.4392ZM87.9857 57.6661C88.3441 57.6661 88.4124 57.6219 88.4124 57.3806 88.4124 57.2243 88.397 57.158 88.3515 57.107 88.2965 57.0492 88.2336 57.0374 88.0112 57.0374L86.8283 57.0374 86.8283 57.6644 87.9857 57.6644 87.9857 57.6661Z" fill="#01A0FB" transform="matrix(1.00612 0 0 1 549 38)"/><path d="M90.5109 57.0425 89.4265 57.0425 89.4265 56.4409 92.3362 56.4409 92.3362 57.0425 91.2517 57.0425 91.2517 58.8744 90.5109 58.8744 90.5109 57.0425Z" fill="#01A0FB" transform="matrix(1.00612 0 0 1 549 38)"/><path d="M92.6228 56.4391 93.3643 56.4391 93.3643 58.8743 92.6228 58.8743 92.6228 56.4391Z" fill="#01A0FB" transform="matrix(1.00612 0 0 1 549 38)"/></g></svg>